REM MD5 5e61251fb08dc83c532a085cd0a09b82
FILE "Noddy - Una Aventura Magica (Spain).bin" BINARY
  TRACK 01 MODE2/2352
    INDEX 01 00:00:00
  TRACK 02 AUDIO
    INDEX 00 24:07:46
    INDEX 01 24:09:46
  TRACK 03 AUDIO
    INDEX 00 25:25:58
    INDEX 01 25:27:58
  TRACK 04 AUDIO
    INDEX 00 27:24:26
    INDEX 01 27:26:26
  TRACK 05 AUDIO
    INDEX 00 29:24:36
    INDEX 01 29:26:36
  TRACK 06 AUDIO
    INDEX 00 32:17:07
    INDEX 01 32:19:07
  TRACK 07 AUDIO
    INDEX 00 33:44:32
    INDEX 01 33:46:32
  TRACK 08 AUDIO
    INDEX 00 35:37:15
    INDEX 01 35:39:15
  TRACK 09 AUDIO
    INDEX 00 35:45:16
    INDEX 01 35:47:16
  TRACK 10 AUDIO
    INDEX 00 35:53:17
    INDEX 01 35:55:17
  TRACK 11 AUDIO
    INDEX 00 36:01:18
    INDEX 01 36:03:18
  TRACK 12 AUDIO
    INDEX 00 36:09:19
    INDEX 01 36:11:19
  TRACK 13 AUDIO
    INDEX 00 36:17:20
    INDEX 01 36:19:20
  TRACK 14 AUDIO
    INDEX 00 36:25:21
    INDEX 01 36:27:21
  TRACK 15 AUDIO
    INDEX 00 36:33:22
    INDEX 01 36:35:22
  TRACK 16 AUDIO
    INDEX 00 36:41:23
    INDEX 01 36:43:23
  TRACK 17 AUDIO
    INDEX 00 36:49:24
    INDEX 01 36:51:24
  TRACK 18 AUDIO
    INDEX 00 36:57:25
    INDEX 01 36:59:25
  TRACK 19 AUDIO
    INDEX 00 37:05:26
    INDEX 01 37:07:26
  TRACK 20 AUDIO
    INDEX 00 37:13:27
    INDEX 01 37:15:27
  TRACK 21 AUDIO
    INDEX 00 37:23:56
    INDEX 01 37:25:56
  TRACK 22 AUDIO
    INDEX 00 37:35:32
    INDEX 01 37:37:32
  TRACK 23 AUDIO
    INDEX 00 37:45:22
    INDEX 01 37:47:22
  TRACK 24 AUDIO
    INDEX 00 37:55:70
    INDEX 01 37:57:70
  TRACK 25 AUDIO
    INDEX 00 38:09:69
    INDEX 01 38:11:69
  TRACK 26 AUDIO
    INDEX 00 38:20:70
    INDEX 01 38:22:70
  TRACK 27 AUDIO
    INDEX 00 38:31:36
    INDEX 01 38:33:36
  TRACK 28 AUDIO
    INDEX 00 38:41:74
    INDEX 01 38:43:74
  TRACK 29 AUDIO
    INDEX 00 38:50:09
    INDEX 01 38:52:09
  TRACK 30 AUDIO
    INDEX 00 38:58:25
    INDEX 01 39:00:25
  TRACK 31 AUDIO
    INDEX 00 39:10:66
    INDEX 01 39:12:66
  TRACK 32 AUDIO
    INDEX 00 39:24:22
    INDEX 01 39:26:22
  TRACK 33 AUDIO
    INDEX 00 39:32:64
    INDEX 01 39:34:64
  TRACK 34 AUDIO
    INDEX 00 39:41:05
    INDEX 01 39:43:05
  TRACK 35 AUDIO
    INDEX 00 40:03:73
    INDEX 01 40:05:73
  TRACK 36 AUDIO
    INDEX 00 40:28:71
    INDEX 01 40:30:71
  TRACK 37 AUDIO
    INDEX 00 40:37:12
    INDEX 01 40:39:12
  TRACK 38 AUDIO
    INDEX 00 40:45:41
    INDEX 01 40:47:41
  TRACK 39 AUDIO
    INDEX 00 40:55:74
    INDEX 01 40:57:74
  TRACK 40 AUDIO
    INDEX 00 41:15:15
    INDEX 01 41:17:15
  TRACK 41 AUDIO
    INDEX 00 41:36:31
    INDEX 01 41:38:31
  TRACK 42 AUDIO
    INDEX 00 41:44:47
    INDEX 01 41:46:47
  TRACK 43 AUDIO
    INDEX 00 41:54:34
    INDEX 01 41:56:34
  TRACK 44 AUDIO
    INDEX 00 42:02:50
    INDEX 01 42:04:50
  TRACK 45 AUDIO
    INDEX 00 42:23:69
    INDEX 01 42:25:69
  TRACK 46 AUDIO
    INDEX 00 42:50:65
    INDEX 01 42:52:65
  TRACK 47 AUDIO
    INDEX 00 43:00:61
    INDEX 01 43:02:61
  TRACK 48 AUDIO
    INDEX 00 43:14:60
    INDEX 01 43:16:60
  TRACK 49 AUDIO
    INDEX 00 43:28:30
    INDEX 01 43:30:30
  TRACK 50 AUDIO
    INDEX 00 43:42:20
    INDEX 01 43:44:20
  TRACK 51 AUDIO
    INDEX 00 43:54:05
    INDEX 01 43:56:05
  TRACK 52 AUDIO
    INDEX 00 44:02:21
    INDEX 01 44:04:21
  TRACK 53 AUDIO
    INDEX 00 44:26:15
    INDEX 01 44:28:15
  TRACK 54 AUDIO
    INDEX 00 44:53:74
    INDEX 01 44:55:74
  TRACK 55 AUDIO
    INDEX 00 45:02:15
    INDEX 01 45:04:15
  TRACK 56 AUDIO
    INDEX 00 45:10:31
    INDEX 01 45:12:31
  TRACK 57 AUDIO
    INDEX 00 45:28:42
    INDEX 01 45:30:42
  TRACK 58 AUDIO
    INDEX 00 45:38:03
    INDEX 01 45:40:03
  TRACK 59 AUDIO
    INDEX 00 45:46:19
    INDEX 01 45:48:19
  TRACK 60 AUDIO
    INDEX 00 46:07:34
    INDEX 01 46:09:34
  TRACK 61 AUDIO
    INDEX 00 46:29:29
    INDEX 01 46:31:29
  TRACK 62 AUDIO
    INDEX 00 46:37:74
    INDEX 01 46:39:74
  TRACK 63 AUDIO
    INDEX 00 46:46:15
    INDEX 01 46:48:15
  TRACK 64 AUDIO
    INDEX 00 47:19:69
    INDEX 01 47:21:69
  TRACK 65 AUDIO
    INDEX 00 47:55:63
    INDEX 01 47:57:63
  TRACK 66 AUDIO
    INDEX 00 48:04:69
    INDEX 01 48:06:69
  TRACK 67 AUDIO
    INDEX 00 48:13:10
    INDEX 01 48:15:10
  TRACK 68 AUDIO
    INDEX 00 48:23:61
    INDEX 01 48:25:61
  TRACK 69 AUDIO
    INDEX 00 48:43:48
    INDEX 01 48:45:48
  TRACK 70 AUDIO
    INDEX 00 49:05:11
    INDEX 01 49:07:11
  TRACK 71 AUDIO
    INDEX 00 49:13:62
    INDEX 01 49:15:62
  TRACK 72 AUDIO
    INDEX 00 49:23:38
    INDEX 01 49:25:38
  TRACK 73 AUDIO
    INDEX 00 49:31:54
    INDEX 01 49:33:54
  TRACK 74 AUDIO
    INDEX 00 49:51:66
    INDEX 01 49:53:66
  TRACK 75 AUDIO
    INDEX 00 50:17:36
    INDEX 01 50:19:36
  TRACK 76 AUDIO
    INDEX 00 50:27:44
    INDEX 01 50:29:44
  TRACK 77 AUDIO
    INDEX 00 50:46:70
    INDEX 01 50:48:70
  TRACK 78 AUDIO
    INDEX 00 51:08:54
    INDEX 01 51:10:54
  TRACK 79 AUDIO
    INDEX 00 51:21:30
    INDEX 01 51:23:30
  TRACK 80 AUDIO
    INDEX 00 51:33:39
    INDEX 01 51:35:39
  TRACK 81 AUDIO
    INDEX 00 51:41:55
    INDEX 01 51:43:55
  TRACK 82 AUDIO
    INDEX 00 52:15:31
    INDEX 01 52:17:31
  TRACK 83 AUDIO
    INDEX 00 52:52:22
    INDEX 01 52:54:22
  TRACK 84 AUDIO
    INDEX 00 53:00:31
    INDEX 01 53:02:31
  TRACK 85 AUDIO
    INDEX 00 53:08:47
    INDEX 01 53:10:47
  TRACK 86 AUDIO
    INDEX 00 53:24:00
    INDEX 01 53:26:00
REM LEADOUT 56:36:00
